<svg width="490" height="70" viewBox="0 0 490 70" fill="none" xmlns="http://www.w3.org/2000/svg">
<path d="M-15 45H5" stroke="black" stroke-width="10" stroke-linecap="square"/>
<path d="M5 25H25M5 25V45M25 25V45M45 25H65M25 45H45M65 45H85M5 5H85M5 65H85" stroke="black" stroke-width="10" stroke-linecap="square"/>
<path d="M85 25H105M85 25V45M105 25V45M125 25H145M105 45H125M145 45H165M85 5H165M85 65H165" stroke="black" stroke-width="10" stroke-linecap="square"/>
<path d="M165 25H185M165 25V45M185 25V45M205 25H225M185 45H205M225 45H245M165 5H245M165 65H245" stroke="black" stroke-width="10" stroke-linecap="square"/>
<path d="M245 25H265M245 25V45M265 25V45M285 25H305M265 45H285M305 45H325M245 5H325M245 65H325" stroke="black" stroke-width="10" stroke-linecap="square"/>
<path d="M325 25H345M325 25V45M345 25V45M365 25H385M345 45H365M385 45H405M325 5H405M325 65H405" stroke="black" stroke-width="10" stroke-linecap="square"/>
<path d="M405 25H425M405 25V45M425 25V45M445 25H465M425 45H445M465 45H485M405 5H485M405 65H485" stroke="black" stroke-width="10" stroke-linecap="square"/>
</svg>
