<svg width="705" height="75" viewBox="0 0 705 75" fill="none" xmlns="http://www.w3.org/2000/svg">
<path d="M7.5 7.5V67.5H97.5V7.5M37.5 7.5V37.5H67.5V7.5" stroke="black" stroke-width="15" stroke-linecap="square"/>
<path d="M127.5 67.5V7.5H217.5V67.5M157.5 67.5V37.5H187.5V67.5" stroke="black" stroke-width="15" stroke-linecap="square"/>
<path d="M247.5 7.5V67.5H337.5V7.5M277.5 7.5V37.5H307.5V7.5" stroke="black" stroke-width="15" stroke-linecap="square"/>
<path d="M367.5 67.5V7.5H457.5V67.5M397.5 67.5V37.5H427.5V67.5" stroke="black" stroke-width="15" stroke-linecap="square"/>
<path d="M487.5 7.5V67.5H577.5V7.5M517.5 7.5V37.5H547.5V7.5" stroke="black" stroke-width="15" stroke-linecap="square"/>
<path d="M607.5 67.5V7.5H697.5V67.5M637.5 67.5V37.5H667.5V67.5" stroke="black" stroke-width="15" stroke-linecap="square"/>
</svg>
