<svg width="378" height="66" viewBox="0 0 378 66" fill="none" xmlns="http://www.w3.org/2000/svg">
<path d="M3 15H39V51H3V27H27V39H15" stroke="black" stroke-width="6" stroke-linecap="square"/>
<path d="M87 15V51H51V15H75V39H63V27" stroke="black" stroke-width="6" stroke-linecap="square"/>
<path d="M135 51H99V15H135V39H111V27H123" stroke="black" stroke-width="6" stroke-linecap="square"/>
<path d="M147 51V15H183V51H159V27H171V39" stroke="black" stroke-width="6" stroke-linecap="square"/>
<path d="M195 15H231V51H195V27H219V39H207" stroke="black" stroke-width="6" stroke-linecap="square"/>
<path d="M279 15V51H243V15H267V39H255V27" stroke="black" stroke-width="6" stroke-linecap="square"/>
<path d="M327 51H291V15H327V39H303V27H315" stroke="black" stroke-width="6" stroke-linecap="square"/>
<path d="M339 51V15H375V51H351V27H363V39" stroke="black" stroke-width="6" stroke-linecap="square"/>
<path d="M375 63H3M375 3H3" stroke="black" stroke-width="6" stroke-linecap="square"/>
</svg>
