<svg width="297.5" height="62.5" viewBox="0 0 297.5 62.5" fill="none" xmlns="http://www.w3.org/2000/svg">
<path d="M1.25 6.25V51.25M1.25 56.25H1.25M6.25 6.25V41.25M6.25 51.25V56.25M6.25 46.25H6.25M11.25 6.25V31.25M11.25 41.25V56.25M11.25 36.25H11.25M16.25 6.25V21.25M16.25 31.25V56.25M16.25 26.25H16.25M21.25 6.25V11.25M21.25 21.25V56.25M21.25 16.25H21.25M26.25 11.25V56.25M26.25 6.25H26.25M31.25 6.25V11.25M31.25 21.25V56.25M31.25 16.25H31.25M36.25 6.25V21.25M36.25 31.25V56.25M36.25 26.25H36.25M41.25 6.25V31.25M41.25 41.25V56.25M41.25 36.25H41.25M46.25 6.25V41.25M46.25 51.25V56.25M46.25 46.25H46.25M1.25 1.25H51.25M1.25 61.25H51.25" stroke="black" stroke-width="2.5" stroke-linecap="square"/>
<path d="M51.25 6.25V51.25M51.25 56.25H51.25M56.25 6.25V41.25M56.25 51.25V56.25M56.25 46.25H56.25M61.25 6.25V31.25M61.25 41.25V56.25M61.25 36.25H61.25M66.25 6.25V21.25M66.25 31.25V56.25M66.25 26.25H66.25M71.25 6.25V11.25M71.25 21.25V56.25M71.25 16.25H71.25M76.25 11.25V56.25M76.25 6.25H76.25M81.25 6.25V11.25M81.25 21.25V56.25M81.25 16.25H81.25M86.25 6.25V21.25M86.25 31.25V56.25M86.25 26.25H86.25M91.25 6.25V31.25M91.25 41.25V56.25M91.25 36.25H91.25M96.25 6.25V41.25M96.25 51.25V56.25M96.25 46.25H96.25M51.25 1.25H101.25M51.25 61.25H101.25" stroke="black" stroke-width="2.5" stroke-linecap="square"/>
<path d="M101.25 6.25V51.25M101.25 56.25H101.25M106.25 6.25V41.25M106.25 51.25V56.25M106.25 46.25H106.25M111.25 6.25V31.25M111.25 41.25V56.25M111.25 36.25H111.25M116.25 6.25V21.25M116.25 31.25V56.25M116.25 26.25H116.25M121.25 6.25V11.25M121.25 21.25V56.25M121.25 16.25H121.25M126.25 11.25V56.25M126.25 6.25H126.25M131.25 6.25V11.25M131.25 21.25V56.25M131.25 16.25H131.25M136.25 6.25V21.25M136.25 31.25V56.25M136.25 26.25H136.25M141.25 6.25V31.25M141.25 41.25V56.25M141.25 36.25H141.25M146.25 6.25V41.25M146.25 51.25V56.25M146.25 46.25H146.25M101.25 1.25H151.25M101.25 61.25H151.25" stroke="black" stroke-width="2.5" stroke-linecap="square"/>
<path d="M151.25 6.25V51.25M151.25 56.25H151.25M156.25 6.25V41.25M156.25 51.25V56.25M156.25 46.25H156.25M161.25 6.25V31.25M161.25 41.25V56.25M161.25 36.25H161.25M166.25 6.25V21.25M166.25 31.25V56.25M166.25 26.25H166.25M171.25 6.25V11.25M171.25 21.25V56.25M171.25 16.25H171.25M176.25 11.25V56.25M176.25 6.25H176.25M181.25 6.25V11.25M181.25 21.25V56.25M181.25 16.25H181.25M186.25 6.25V21.25M186.25 31.25V56.25M186.25 26.25H186.25M191.25 6.25V31.25M191.25 41.25V56.25M191.25 36.25H191.25M196.25 6.25V41.25M196.25 51.25V56.25M196.25 46.25H196.25M151.25 1.25H201.25M151.25 61.25H201.25" stroke="black" stroke-width="2.5" stroke-linecap="square"/>
<path d="M201.25 6.25V51.25M201.25 56.25H201.25M206.25 6.25V41.25M206.25 51.25V56.25M206.25 46.25H206.25M211.25 6.25V31.25M211.25 41.25V56.25M211.25 36.25H211.25M216.25 6.25V21.25M216.25 31.25V56.25M216.25 26.25H216.25M221.25 6.25V11.25M221.25 21.25V56.25M221.25 16.25H221.25M226.25 11.25V56.25M226.25 6.25H226.25M231.25 6.25V11.25M231.25 21.25V56.25M231.25 16.25H231.25M236.25 6.25V21.25M236.25 31.25V56.25M236.25 26.25H236.25M241.25 6.25V31.25M241.25 41.25V56.25M241.25 36.25H241.25M246.25 6.25V41.25M246.25 51.25V56.25M246.25 46.25H246.25M201.25 1.25H251.25M201.25 61.25H251.25" stroke="black" stroke-width="2.5" stroke-linecap="square"/>
<path d="M251.25 6.25V51.25M251.25 56.25H251.25M256.25 6.25V41.25M256.25 51.25V56.25M256.25 46.25H256.25M261.25 6.25V31.25M261.25 41.25V56.25M261.25 36.25H261.25M266.25 6.25V21.25M266.25 31.25V56.25M266.25 26.25H266.25M271.25 6.25V11.25M271.25 21.25V56.25M271.25 16.25H271.25M276.25 11.25V56.25M276.25 6.25H276.25M281.25 6.25V11.25M281.25 21.25V56.25M281.25 16.25H281.25M286.25 6.25V21.25M286.25 31.25V56.25M286.25 26.25H286.25M291.25 6.25V31.25M291.25 41.25V56.25M291.25 36.25H291.25M296.25 6.25V41.25M296.25 51.25V56.25M296.25 46.25H296.25M251.25 1.25H296.25M251.25 61.25H296.25" stroke="black" stroke-width="2.5" stroke-linecap="square"/>
</svg>
